# xmcd
#
# Track frame offsets:
#	150
#	14967
#	30023
#	51532
#	66615
#	84085
#	97373
#	111449
#	124551
#	139166
#	157620
#	177285
#	193256
#	206058
#
# Disc length: 2949 seconds
#
# Revision: 0
# Processed by: cddbd v1.5.2PL0 Copyright (c) Steve Scherf et al.
# Submitted via: EasyCDDAExtractor 11.1.0.1
#
DISCID=cb0b830e
DTITLE=Various Artist - Earthwide musik service
DYEAR=2004
DGENRE=country
TTITLE0=Christy Bowles - Need you
TTITLE1=Ray Grizzell - I'm lucky
TTITLE2=Kelly Lang - Goodbye darlin'
TTITLE3=Josh Logan - Gentle rain
TTITLE4=Marshall Madison - Jackson Mississippi
TTITLE5=Duane Michaels - Ladies choice
TTITLE6=Sandy Powell - Has the bridge burned yet
TTITLE7=Bobby G Rice - You're always here
TTITLE8=Carolyn Richards - Patsy we're still loving you
TTITLE9=Jon Russell - I'm not here to start a fire
TTITLE10=Bruce Morgan - Lighthouse
TTITLE11=Candace Parks - Sacred place
TTITLE12=Local Instinct - Three empty rooms
TTITLE13=Boday - Kick it up
EXTD=
EXTT0=
EXTT1=
EXTT2=
EXTT3=
EXTT4=
EXTT5=
EXTT6=
EXTT7=
EXTT8=
EXTT9=
EXTT10=
EXTT11=
EXTT12=
EXTT13=
PLAYORDER=
